<svg width="24" height="24" viewBox="0 0 24 24" fill="none" xmlns="http://www.w3.org/2000/svg">
<path fill-rule="evenodd" clip-rule="evenodd" d="M1.2002 11.1778C1.2002 12.2578 2.09294 13.1333 3.17296 13.1333C3.69884 13.1333 4.13353 13.5596 4.13353 14.0855C4.13353 14.8839 5.05709 15.3278 5.68054 14.829L7.52628 13.3524C7.70359 13.2106 7.9239 13.1333 8.15098 13.1333H8.4002V9.69998C8.4002 8.31926 9.51948 7.19998 10.9002 7.19998H14.4002V5.59998C14.4002 4.49541 13.5048 3.59998 12.4002 3.59998H3.2002C2.09563 3.59998 1.2002 4.49541 1.2002 5.59998V11.1778Z" fill="url(#paint0_linear_372_4506)"/>
<path d="M20.827 17.9334C21.9071 17.9334 22.7998 17.0578 22.7998 15.9778V10.4C22.7998 9.29546 21.9044 8.40002 20.7998 8.40002H11.5998C10.4952 8.40002 9.59981 9.29546 9.59981 10.4V15.9334C9.59981 17.0379 10.4952 17.9334 11.5998 17.9334H15.849C16.0761 17.9334 16.2964 18.0106 16.4737 18.1525L18.3195 19.6291C18.9429 20.1278 19.8665 19.684 19.8665 18.8855V18.8855C19.8665 18.3597 20.3012 17.9334 20.827 17.9334V17.9334Z" fill="url(#paint1_linear_372_4506)"/>
<defs>
<linearGradient id="paint0_linear_372_4506" x1="0.000195669" y1="-2.42073e-05" x2="23.8576" y2="24.1409" gradientUnits="userSpaceOnUse">
<stop stop-color="#FDFDFD"/>
<stop offset="1" stop-color="#929292"/>
</linearGradient>
<linearGradient id="paint1_linear_372_4506" x1="-0.000195623" y1="2.36314e-05" x2="28.7022" y2="15.005" gradientUnits="userSpaceOnUse">
<stop stop-color="#FDFDFD"/>
<stop offset="1" stop-color="#A4A4A4"/>
</linearGradient>
</defs>
</svg>
