<svg id="eG6N25EqlUS1" xmlns="http://www.w3.org/2000/svg" xmlns:xlink="http://www.w3.org/1999/xlink" viewBox="0 0 1063.57 193.16"  shapeRendering="geometricPrecision"
  textRendering="geometricPrecision">
  <g>
    <polyline
      points="49.6,20.8 26.04,20.8 26.04,172.7 49.6,172.7 49.6,193.16 0,193.16 0,0.03 49.6,0.03 49.6,20.8" />
  </g>
  <g>
    <path
      d="M89.7,147.39c-9.09-4.82-16.18-11.52-21.27-20.13-5.08-8.6-7.63-18.34-7.64-29.21c0-10.87,2.55-20.58,7.64-29.11c5.09-8.54,12.14-15.21,21.15-20.03s19.3-7.23,30.86-7.23c10.87,0,20.4,2.2,28.59,6.61s14.35,10.74,18.48,18.99L147.69,78.84c-3.17-5.09-7.13-8.91-11.87-11.47-4.79-2.55-10.15-3.85-15.58-3.79-9.64,0-17.62,3.13-23.95,9.39s-9.5,14.62-9.51,25.07c0,10.46,3.13,18.83,9.39,25.09s14.28,9.39,24.05,9.39c5.43.05,10.79-1.26,15.59-3.82c4.75-2.55,8.71-6.37,11.87-11.47l19.82,11.56c-4.13,8.12-10.65,14.79-18.67,19.11-8.19,4.47-17.65,6.71-28.39,6.71-11.43,0-21.68-2.4-30.76-7.22Z" />
  </g>
  <g id="eG6N25EqlUS6" transform="translate(.000054 1.559994)">
    <g id="eG6N25EqlUS7">
      <path
        d="M207.59,147.22c-8.95-4.82-15.93-11.52-20.96-20.13-5.02-8.6-7.54-18.34-7.53-29.21c0-10.87,2.51-20.58,7.53-29.11c5.02-8.54,12.01-15.21,20.96-20.03s18.99-7.23,30.14-7.23s21.4,2.41,30.35,7.23s15.93,11.49,20.96,20.03c5.02,8.54,7.53,18.24,7.54,29.11c0,10.87-2.51,20.61-7.54,29.21s-12.01,15.31-20.96,20.13c-8.94,4.82-19.06,7.22-30.35,7.23-11.15,0-21.2-2.41-30.14-7.23Zm53.68-24.36c6.2-6.33,9.3-14.65,9.3-24.98s-3.1-18.65-9.3-24.98c-6.19-6.32-14.04-9.48-23.54-9.48s-17.31,3.17-23.43,9.5c-6.13,6.33-9.19,14.66-9.19,24.98s3.06,18.65,9.19,24.98c6.12,6.33,13.93,9.5,23.43,9.5s17.34-3.17,23.54-9.51Z" />
    </g>
    <g id="eG6N25EqlUS9">
      <path
        d="M429.23,0.03v153.14h-24.8v-14.26c-4.2,5.19-9.64,9.24-15.81,11.78-6.27,2.61-13.18,3.92-20.75,3.92-10.6,0-20.13-2.34-28.59-7.02s-15.1-11.32-19.92-19.92-7.23-18.47-7.23-29.63s2.41-20.99,7.23-29.52C324,60.16,330.92,53.29,339.3,48.7c8.46-4.67,17.99-7.01,28.59-7.02c7.3,0,13.97,1.24,20.03,3.72c6.05,2.48,15.59,11.16,15.59,11.16v-56.53h25.73ZM387.71,128.29c4.96-2.82,8.89-6.85,11.78-12.09s4.34-11.3,4.34-18.17-1.45-12.94-4.34-18.17-6.82-9.26-11.78-12.09c-4.96-2.82-10.54-4.23-16.74-4.23s-11.77,1.41-16.72,4.23c-4.96,2.82-8.89,6.85-11.78,12.09s-4.34,11.3-4.34,18.17s1.45,12.94,4.34,18.17s6.82,9.26,11.78,12.09c4.96,2.82,10.53,4.23,16.72,4.23s11.77-1.41,16.74-4.23Z" />
    </g>
    <g id="eG6N25EqlUS11">
      <path
        d="M566.41,106.04h-86.51c1.51,8.12,5.47,14.56,11.87,19.3c6.4,4.75,14.35,7.12,23.85,7.13c12.11,0,22.09-3.99,29.94-11.98l13.83,15.9c-4.96,5.92-11.22,10.39-18.79,13.42s-16.1,4.54-25.6,4.54c-12.11,0-22.78-2.41-32-7.23s-16.34-11.53-21.37-20.13-7.54-18.34-7.54-29.21c0-10.73,2.44-20.4,7.33-29.01c4.76-8.48,11.81-15.45,20.34-20.13c8.68-4.81,18.45-7.22,29.32-7.23c10.73,0,20.33,2.38,28.8,7.13c8.37,4.66,15.25,11.6,19.82,20.03c4.75,8.6,7.13,18.55,7.13,29.83c0,1.78-.14,4.32-.42,7.63ZM490.13,69.48c-5.71,4.89-9.19,11.39-10.43,19.51h62.56c-1.1-7.98-4.48-14.45-10.12-19.41s-12.66-7.44-21.06-7.44c-8.26,0-15.24,2.45-20.96,7.33Z" />
    </g>
    <g>
      <polygon
        points="578.15,193.13 578.15,172.67 601.4,172.67 601.4,20.77 578.15,20.77 578.15,0 627.44,0 627.44,193.13 578.15,193.13" />
    </g>
    <g id="eG6N25EqlUS15" transform="translate(.000001 0.000001)">
      <g id="eG6N25EqlUS16">
        <path
          d="M683.58,147.19c-8.36-4.57-15.26-11.41-19.92-19.72-4.82-8.46-7.23-17.99-7.23-28.59s2.41-20.1,7.23-28.49c4.69-8.26,11.59-15.06,19.92-19.61c8.45-4.68,18.06-7.02,28.8-7.02c9.36,0,17.72,1.82,25.08,5.47c7.24,3.54,13.3,9.09,17.45,16l-10.94,7.44c-3.58-5.37-8.12-9.4-13.62-12.09-5.6-2.71-11.74-4.09-17.96-4.03-7.85,0-14.91,1.76-21.16,5.27-6.23,3.47-11.32,8.67-14.66,14.97-3.51,6.47-5.27,13.84-5.27,22.09s1.76,15.8,5.27,22.2c3.36,6.26,8.45,11.42,14.66,14.88c6.26,3.51,13.32,5.27,21.16,5.27c6.21.06,12.34-1.28,17.96-3.92c5.5-2.61,10.05-6.61,13.62-11.98l10.94,7.44c-4.17,6.93-10.27,12.49-17.55,16-7.44,3.65-15.77,5.47-24.98,5.47-10.75-.01-20.35-2.36-28.8-7.04Z" />
      </g>
      <g id="eG6N25EqlUS18">
        <path
          d="M854.23,54.36c7.52,7.09,11.29,17.58,11.29,31.49v67.37h-13.95v-16.95c-3.28,5.65-8.1,10.06-14.46,13.23s-13.91,4.75-22.67,4.75c-12.04,0-21.61-2.89-28.72-8.68s-10.67-13.43-10.67-22.94s3.32-16.67,9.95-22.32s17.2-8.48,31.69-8.47h34.26v-6.61c0-9.36-2.6-16.48-7.8-21.37s-12.79-7.33-22.78-7.33c-6.72-.02-13.38,1.13-19.7,3.41-6.3,2.27-11.7,5.41-16.21,9.4L777.89,58.4c5.47-4.68,12.04-8.3,19.7-10.85c7.81-2.57,15.99-3.86,24.21-3.81c14.09,0,24.9,3.54,32.42,10.63Zm-16.5,82.49c5.91-3.78,10.32-9.25,13.21-16.41v-17.76h-34.07c-18.58,0-27.87,6.47-27.87,19.41c0,6.33,2.41,11.32,7.23,14.97s11.56,5.47,20.23,5.47s15.35-1.89,21.27-5.68Z" />
      </g>
      <g id="eG6N25EqlUS20">
        <path
          d="M989.1,50.46c8.19,4.54,14.93,11.3,19.43,19.51c4.68,8.4,7.02,17.96,7.02,28.7c0,10.87-2.34,20.51-7.02,28.9s-11.12,14.9-19.32,19.51c-8.2,4.62-17.46,6.92-27.8,6.92-8.82,0-16.78-1.82-23.87-5.47s-12.92-8.98-17.46-16v60.64h-14.57v-148.81h13.95v21.47c4.22-6.98,10.26-12.68,17.46-16.51c7.23-3.85,15.4-5.78,24.49-5.78c10.2,0,19.43,2.3,27.69,6.91Zm-8.13,85.48c6.2-3.51,11.06-8.5,14.57-14.97s5.27-13.83,5.27-22.09-1.76-15.6-5.27-21.99c-3.37-6.25-8.41-11.43-14.57-14.97-6.2-3.58-13.08-5.37-20.65-5.37-7.71,0-14.62,1.79-20.75,5.37-6.11,3.56-11.11,8.74-14.45,14.97-3.51,6.41-5.27,13.74-5.27,21.99s1.76,15.62,5.27,22.09s8.33,11.46,14.45,14.97s13.04,5.26,20.75,5.27c7.57,0,14.45-1.76,20.65-5.27Z" />
      </g>
      <g id="eG6N25EqlUS22">
        <path
          d="M1045.19,17.8c-2.02-1.94-3.14-4.64-3.1-7.44c0-2.75,1.03-5.16,3.1-7.23c2.01-2.04,4.77-3.17,7.64-3.1c3.03,0,5.57,1,7.64,2.99s3.1,4.37,3.1,7.13c-.03,4.34-2.65,8.24-6.66,9.91s-8.62.77-11.72-2.27v0Z" />
        <rect width="14.57" height="108.5" rx="0" ry="0" transform="translate(1045.32 44.74)" />
      </g>
    </g>
  </g>
</svg>